<svg xmlns="http://www.w3.org/2000/svg" width="11.813" height="20.812" viewBox="0 0 11.813 20.812">
  <path id="_013-facebook" data-name="013-facebook" d="M7.8,20.812H4.464a1.011,1.011,0,0,1-1.01-1.01V12.285H1.51A1.011,1.011,0,0,1,.5,11.275V8.054a1.011,1.011,0,0,1,1.01-1.01H3.454V5.431A5.492,5.492,0,0,1,4.906,1.5,5.231,5.231,0,0,1,8.763,0l2.542,0a1.011,1.011,0,0,1,1.008,1.01V4A1.01,1.01,0,0,1,11.3,5.014H9.592c-.522,0-.655.1-.683.137-.047.053-.1.2-.1.619V7.044h2.369a1.026,1.026,0,0,1,.5.127,1.013,1.013,0,0,1,.519.883v3.221a1.011,1.011,0,0,1-1.01,1.009H8.806V19.8a1.011,1.011,0,0,1-1.01,1.01Zm-3.122-1.22H7.586V11.739a.675.675,0,0,1,.674-.674h2.712v-2.8H8.26a.675.675,0,0,1-.674-.674V5.77a2.078,2.078,0,0,1,.408-1.426,2.068,2.068,0,0,1,1.6-.549h1.5V1.224l-2.33,0A3.852,3.852,0,0,0,4.674,5.431V7.591A.675.675,0,0,1,4,8.265H1.72v2.8H4a.675.675,0,0,1,.674.674ZM11.3,1.224h0Zm0,0" transform="translate(-0.5 0)" fill="#0caece"/>
</svg>
