<svg id="_014-instagram" data-name="014-instagram" xmlns="http://www.w3.org/2000/svg" width="20.812" height="20.812" viewBox="0 0 20.812 20.812">
  <path id="Path_597" data-name="Path 597" d="M15.178,0H5.633A5.64,5.64,0,0,0,0,5.634v9.545a5.64,5.64,0,0,0,5.634,5.634h9.545a5.64,5.64,0,0,0,5.634-5.634V5.634A5.64,5.64,0,0,0,15.178,0Zm4.414,15.179a4.419,4.419,0,0,1-4.414,4.413H5.633a4.419,4.419,0,0,1-4.414-4.413V5.634A4.419,4.419,0,0,1,5.633,1.22h9.545a4.419,4.419,0,0,1,4.413,4.414Zm0,0" transform="translate(0.001 0)" fill="#0caece"/>
  <path id="Path_598" data-name="Path 598" d="M121.695,116a5.691,5.691,0,1,0,5.691,5.691A5.7,5.7,0,0,0,121.695,116Zm0,10.161a4.471,4.471,0,1,1,4.471-4.471A4.476,4.476,0,0,1,121.695,126.165Zm0,0" transform="translate(-111.288 -111.289)" fill="#0caece"/>
  <path id="Path_599" data-name="Path 599" d="M359.658,66.285a1.682,1.682,0,1,0,1.682,1.682A1.683,1.683,0,0,0,359.658,66.285Zm0,2.143a.461.461,0,1,1,.462-.461A.462.462,0,0,1,359.658,68.428Zm0,0" transform="translate(-343.425 -63.591)" fill="#0caece"/>
</svg>
